<?xml version="1.0" standalone="no"?>
<!DOCTYPE svg PUBLIC "-//W3C//DTD SVG 20010904//EN"
 "http://www.w3.org/TR/2001/REC-SVG-20010904/DTD/svg10.dtd">
<svg version="1.0" xmlns="http://www.w3.org/2000/svg"
 width="118.000000pt" height="118.000000pt" viewBox="0 0 118.000000 118.000000"
 preserveAspectRatio="xMidYMid meet">
<metadata>
Created by potrace 1.11, written by Peter Selinger 2001-2013
</metadata>
<g transform="translate(0.000000,118.000000) scale(0.100000,-0.100000)"
fill="#000000" stroke="none">
<path d="M505 1160 c-4 -6 -11 -8 -16 -5 -5 4 -9 1 -9 -4 0 -6 -3 -10 -7 -9
-18 5 -92 -43 -124 -80 -51 -58 -69 -82 -64 -82 3 0 -1 -13 -10 -30 -9 -16
-13 -30 -11 -30 3 0 -1 -11 -8 -25 -10 -19 -12 -93 -10 -312 3 -310 3 -313 16
-313 4 0 8 -7 8 -15 0 -29 39 -92 84 -137 53 -53 104 -81 171 -93 11 -2 20 -4
20 -6 0 -1 17 -3 38 -4 20 -1 37 1 37 5 0 3 8 6 18 6 68 3 130 34 182 89 44
47 60 69 60 82 0 7 5 13 10 13 6 0 10 9 10 20 0 11 4 20 8 20 10 0 11 8 18
144 6 107 6 109 -15 103 -12 -3 -21 0 -21 6 0 8 -3 8 -8 2 -8 -11 -32 -13 -47
-3 -14 8 -10 167 4 181 7 7 11 7 11 1 0 -9 22 -10 73 -5 9 1 7 190 -2 206 -6
11 -10 29 -13 58 -1 9 -5 17 -8 17 -3 0 -11 14 -18 30 -29 65 -145 157 -212
167 -72 11 -123 12 -141 2 -15 -8 -19 -8 -15 0 4 6 5 11 2 11 -3 0 -8 -5 -11
-10z"/>
</g>
</svg>
